<?xml version="1.0" standalone="no"?>
<!DOCTYPE svg PUBLIC "-//W3C//DTD SVG 20010904//EN"
 "http://www.w3.org/TR/2001/REC-SVG-20010904/DTD/svg10.dtd">
<svg version="1.0" xmlns="http://www.w3.org/2000/svg"
 width="300.000000pt" height="300.000000pt" viewBox="0 0 300.000000 300.000000"
 preserveAspectRatio="xMidYMid meet">
<metadata>
Created by potrace 1.11, written by Peter Selinger 2001-2013
</metadata>
<g transform="translate(0.000000,300.000000) scale(0.100000,-0.100000)"
fill="#000000" stroke="none">
<path d="M2355 2485 c-55 -46 -100 -88 -100 -93 0 -6 24 -26 54 -46 l54 -37
39 27 c21 15 41 31 44 36 8 13 111 -117 167 -210 81 -134 146 -308 208 -562
123 -497 -90 -1035 -522 -1323 -426 -283 -992 -275 -1408 20 -73 52 -296 265
-373 357 -45 53 -48 60 -34 75 14 16 13 23 -11 79 -15 34 -32 62 -37 62 -9 0
-136 -101 -155 -124 -13 -16 121 -188 234 -299 187 -183 435 -316 704 -378
113 -26 385 -37 502 -19 535 78 981 441 1158 943 57 162 75 272 75 467 0 126
-5 202 -17 270 -36 194 -125 406 -241 575 -58 84 -214 263 -231 264 -5 1 -55
-37 -110 -84z"/>
<path d="M2298 2157 c-36 -12 -425 -349 -622 -540 l-81 -77 85 5 c47 3 114 8
150 10 415 27 649 48 676 60 92 40 154 137 154 242 0 205 -183 357 -362 300z"/>
<path d="M1909 1136 c349 -349 345 -346 452 -346 99 1 195 64 246 165 35 67
43 176 18 240 -19 51 -89 126 -132 143 -29 11 -842 121 -903 122 -3 0 141
-146 319 -324z"/>
<path d="M1335 1335 c-60 -46 -220 -170 -355 -277 -206 -162 -249 -201 -268
-240 -48 -96 -21 -229 63 -311 122 -119 302 -123 412 -9 37 38 40 48 107 308
64 249 155 615 152 614 0 -1 -50 -38 -111 -85z"/>
<path d="M1526 1363 c-3 -21 -10 -141 -16 -268 -6 -126 -15 -310 -21 -408 -9
-170 -9 -179 12 -227 62 -144 240 -201 394 -126 124 61 192 203 151 316 -12
34 -443 664 -511 748 -2 2 -6 -14 -9 -35z"/>
</g>
</svg>
